<?xml version="1.0" encoding="UTF-8"?>
<svg width="877px" height="151px" viewBox="0 0 877 151" version="1.1" xmlns="http://www.w3.org/2000/svg" xmlns:xlink="http://www.w3.org/1999/xlink">
    <!-- Generator: Sketch 52.6 (67491) - http://www.bohemiancoding.com/sketch -->
    <title>logo</title>
    <desc>Created with Sketch.</desc>
    <g id="logo" stroke="none" stroke-width="1" fill="none" fill-rule="evenodd">
        <path d="M60.7813039,68.6 C63.1013155,68.6 65.1612949,68.9199968 66.9613039,69.56 C68.7613129,70.2000032 70.2012985,71.219993 71.2813039,72.62 C72.3613093,74.020007 73.0013029,75.7999892 73.2013039,77.96 C73.4013049,80.1200108 73.0613083,82.7199848 72.1813039,85.76 L59.9413039,127.4 C59.3013007,129.560011 58.4013097,131.299993 57.2413039,132.62 C56.0812981,133.940007 54.8013109,134.959996 53.4013039,135.68 C52.0012969,136.400004 50.5213117,136.879999 48.9613039,137.12 C47.4012961,137.360001 45.8613115,137.48 44.3413039,137.48 L20.7013039,137.48 C17.2612867,137.48 14.6013133,136.240012 12.7213039,133.76 C10.8412945,131.279988 10.5012979,128.04002 11.7013039,124.04 L17.7013039,103.4 L36.7813039,103.4 L32.2213039,118.52 C31.9013023,119.560005 31.9813015,120.219999 32.4613039,120.5 C32.9413063,120.780001 33.5413003,120.92 34.2613039,120.92 L38.8213039,120.92 C39.9413095,120.92 40.7813011,120.740002 41.3413039,120.38 C41.9013067,120.019998 42.3413023,119.280006 42.6613039,118.16 L52.3813039,85.28 C52.5413047,84.7999976 52.5613045,84.4000016 52.4413039,84.08 C52.3213033,83.7599984 51.8613079,83.6 51.0613039,83.6 L23.5813039,83.6 L28.0213039,68.6 L60.7813039,68.6 Z M28.8613039,65.72 L41.1013039,24.32 C41.7413071,22.1599892 42.5812987,20.4000068 43.6213039,19.04 C44.6613091,17.6799932 45.8412973,16.6200038 47.1613039,15.86 C48.4813105,15.0999962 49.9012963,14.6000012 51.4213039,14.36 C52.9413115,14.1199988 54.4612963,14 55.9813039,14 L93.3013039,14 L83.3413039,48.08 L63.0613039,52.64 L69.7813039,29.96 L62.2213039,29.96 C61.1012983,29.96 60.2813065,30.1399982 59.7613039,30.5 C59.2413013,30.8600018 58.8213055,31.5999944 58.5013039,32.72 L48.9013039,65.72 L28.8613039,65.72 Z M81.9013039,50.24 L124.141304,50.24 L119.461304,65.96 L107.221304,65.96 L86.4613039,137.48 L68.4613039,137.48 L89.7013039,65.96 L77.2213039,65.96 L81.9013039,50.24 Z M141.301304,69.2 L125.461304,108.68 L134.461304,108.68 L141.301304,69.2 Z M95.4613039,137.48 L133.741304,50.24 L159.541304,50.24 L147.661304,137.48 L129.661304,137.48 L132.421304,121.76 L120.541304,121.76 L114.301304,137.48 L95.4613039,137.48 Z M210.661304,76.76 L193.141304,80.84 L197.941304,64.28 L192.061304,64.28 C191.101299,64.28 190.381306,64.4399984 189.901304,64.76 C189.421302,65.0800016 189.021306,65.7999944 188.701304,66.92 L173.941304,117.08 C173.1413,119.640013 174.021291,120.92 176.581304,120.92 L196.621304,120.92 L190.141304,137.48 L166.501304,137.48 C164.421294,137.48 162.501313,137.180003 160.741304,136.58 C158.981295,135.979997 157.52131,135.040006 156.361304,133.76 C155.201298,132.479994 154.441306,130.84001 154.081304,128.84 C153.721302,126.83999 153.9813,124.400014 154.861304,121.52 L173.461304,58.4 C174.421309,55.1199836 175.841295,52.9400054 177.721304,51.86 C179.601313,50.7799946 182.021289,50.24 184.981304,50.24 L218.461304,50.24 L210.661304,76.76 Z M268.501304,50.24 L257.581304,87.32 C257.021301,88.920008 255.961312,90.4399928 254.401304,91.88 C252.841296,93.3200072 250.46132,94.0000004 247.261304,93.92 C248.781312,94.0000004 250.001299,94.3599968 250.921304,95 C251.841309,95.6400032 252.521302,96.4399952 252.961304,97.4 C253.401306,98.3600048 253.621304,99.439994 253.621304,100.64 C253.621304,101.840006 253.461306,102.999994 253.141304,104.12 L243.301304,137.48 L225.301304,137.48 L235.261304,103.76 C235.661306,102.639994 235.701306,101.780003 235.381304,101.18 C235.061302,100.579997 234.30131,100.28 233.101304,100.28 L227.461304,100.28 L216.421304,137.48 L198.421304,137.48 L224.101304,50.24 L242.101304,50.24 L231.181304,87.44 L236.581304,87.44 C237.621309,87.44 238.5013,87.2200022 239.221304,86.78 C239.941308,86.3399978 240.501302,85.4400068 240.901304,84.08 L250.861304,50.24 L268.501304,50.24 Z M293.341304,69.2 L277.501304,108.68 L286.501304,108.68 L293.341304,69.2 Z M247.501304,137.48 L285.781304,50.24 L311.581304,50.24 L299.701304,137.48 L281.701304,137.48 L284.461304,121.76 L272.581304,121.76 L266.341304,137.48 L247.501304,137.48 Z M342.541304,86.96 C343.74131,86.96 344.681301,86.760002 345.361304,86.36 C346.041307,85.959998 346.581302,85.0800068 346.981304,83.72 L351.661304,67.88 C352.061306,66.7599944 352.101306,65.8800032 351.781304,65.24 C351.461302,64.5999968 350.621311,64.28 349.261304,64.28 L343.381304,64.28 L336.661304,86.96 L342.541304,86.96 Z M329.461304,50.24 L361.981304,50.24 C366.141325,50.24 368.861298,51.3599888 370.141304,53.6 C371.42131,55.8400112 371.621308,58.5199844 370.741304,61.64 L363.061304,87.92 C362.661302,89.4400076 361.621312,90.8599934 359.941304,92.18 C358.261296,93.5000066 355.901319,94.0800008 352.861304,93.92 C354.381312,94.0000004 355.621299,94.3599968 356.581304,95 C357.541309,95.6400032 358.241302,96.4399952 358.681304,97.4 C359.121306,98.3600048 359.341304,99.439994 359.341304,100.64 C359.341304,101.840006 359.181306,102.999994 358.861304,104.12 L351.661304,128.24 C350.7813,131.040014 349.281315,133.279992 347.161304,134.96 C345.041293,136.640008 341.981324,137.48 337.981304,137.48 L303.781304,137.48 L329.461304,50.24 Z M332.581304,122.96 C333.461308,122.96 334.221301,122.800002 334.861304,122.48 C335.501307,122.159998 336.021302,121.320007 336.421304,119.96 L341.581304,102.44 C341.901306,101.319994 341.901306,100.400004 341.581304,99.68 C341.261302,98.9599964 340.421311,98.6 339.061304,98.6 L333.301304,98.6 L326.101304,122.96 L332.581304,122.96 Z M380.341304,50.24 L399.661304,50.24 L378.901304,120.92 L398.581304,120.92 L392.341304,137.48 L354.661304,137.48 L380.341304,50.24 Z M424.141304,50.24 L458.461304,50.24 L453.781304,65.96 L437.701304,65.96 L432.061304,85.16 L447.781304,85.16 L443.221304,100.64 L427.501304,100.64 L421.501304,120.92 L438.181304,120.92 L432.181304,137.48 L398.461304,137.48 L424.141304,50.24 Z M489.421304,34.28 L458.941304,137.48 L438.781304,137.48 L469.141304,34.28 L489.421304,34.28 Z M451.501304,31.4 L459.061304,14 L513.181304,14 L508.021304,31.4 L451.501304,31.4 Z M509.221304,69.2 L493.381304,108.68 L502.381304,108.68 L509.221304,69.2 Z M463.381304,137.48 L501.661304,50.24 L527.461304,50.24 L515.581304,137.48 L497.581304,137.48 L500.341304,121.76 L488.461304,121.76 L482.221304,137.48 L463.381304,137.48 Z M558.421304,86.96 C559.62131,86.96 560.561301,86.760002 561.241304,86.36 C561.921307,85.959998 562.461302,85.0800068 562.861304,83.72 L567.541304,67.88 C567.941306,66.7599944 567.981306,65.8800032 567.661304,65.24 C567.341302,64.5999968 566.501311,64.28 565.141304,64.28 L559.261304,64.28 L552.541304,86.96 L558.421304,86.96 Z M545.341304,50.24 L577.861304,50.24 C582.021325,50.24 584.741298,51.3599888 586.021304,53.6 C587.30131,55.8400112 587.501308,58.5199844 586.621304,61.64 L578.941304,87.92 C578.541302,89.4400076 577.501312,90.8599934 575.821304,92.18 C574.141296,93.5000066 571.781319,94.0800008 568.741304,93.92 C570.261312,94.0000004 571.501299,94.3599968 572.461304,95 C573.421309,95.6400032 574.121302,96.4399952 574.561304,97.4 C575.001306,98.3600048 575.221304,99.439994 575.221304,100.64 C575.221304,101.840006 575.061306,102.999994 574.741304,104.12 L567.541304,128.24 C566.6613,131.040014 565.161315,133.279992 563.041304,134.96 C560.921293,136.640008 557.861324,137.48 553.861304,137.48 L519.661304,137.48 L545.341304,50.24 Z M548.461304,122.96 C549.341308,122.96 550.101301,122.800002 550.741304,122.48 C551.381307,122.159998 551.901302,121.320007 552.301304,119.96 L557.461304,102.44 C557.781306,101.319994 557.781306,100.400004 557.461304,99.68 C557.141302,98.9599964 556.301311,98.6 554.941304,98.6 L549.181304,98.6 L541.981304,122.96 L548.461304,122.96 Z M596.221304,50.24 L615.541304,50.24 L594.781304,120.92 L614.461304,120.92 L608.221304,137.48 L570.541304,137.48 L596.221304,50.24 Z M640.021304,50.24 L674.341304,50.24 L669.661304,65.96 L653.581304,65.96 L647.941304,85.16 L663.661304,85.16 L659.101304,100.64 L643.381304,100.64 L637.381304,120.92 L654.061304,120.92 L648.061304,137.48 L614.341304,137.48 L640.021304,50.24 Z M690.661304,14 L710.461304,14 L698.821304,82.64 L725.221304,14 L745.501304,14 L693.061304,137.48 L673.741304,137.48 L690.661304,14 Z M726.901304,137.48 L708.301304,137.48 L733.981304,50.24 L752.581304,50.24 L726.901304,137.48 Z M758.581304,50.24 L792.901304,50.24 L788.221304,65.96 L772.141304,65.96 L766.501304,85.16 L782.221304,85.16 L777.661304,100.64 L761.941304,100.64 L755.941304,120.92 L772.621304,120.92 L766.621304,137.48 L732.901304,137.48 L758.581304,50.24 Z M796.741304,50.24 L814.861304,50.24 L808.021304,90.32 L824.581304,50.24 L838.501304,50.24 L831.541304,90.32 L848.101304,50.24 L866.701304,50.24 L828.421304,137.48 L810.901304,137.48 L816.061304,105.68 L802.381304,137.48 L785.221304,137.48 L796.741304,50.24 Z" id="StackableTableView" fill="#262626"></path>
    </g>
</svg>